<?xml version="1.0" encoding="UTF-8"?><svg id="Layer_2" xmlns="http://www.w3.org/2000/svg" viewBox="0 0 179.43 207.49"><g id="Layer_1-2"><path d="m100.77,196.72c0,5.95-4.95,10.77-11.06,10.77-5.75,0-10.48-4.28-11-9.76-.03-.33-.05-.67-.05-1.01v-84.73l-17.37-10.03v73.67c-.01.2-.03.4-.06.59-.63,5.35-5.3,9.51-10.97,9.51s-10.35-4.16-10.98-9.51c0-.02,0-.05,0-.07v-86.9l-17.21-9.94v71.91c.03.33.05.66.05.99,0,5.95-4.95,10.77-11.06,10.77-5.79,0-10.55-4.35-11.01-9.89-.01-.03-.01-.07-.01-.11V60.84c-.02-.26-.03-.52-.03-.78,0-5.95,4.95-10.77,11.05-10.77,1.93,0,3.74.48,5.32,1.33v-.02s77.55,44.76,77.55,44.76l2.63,1.52c.12.09.24.19.36.29,2.18,1.85,3.6,4.53,3.78,7.53v.08c.01.18.03.35.03.53,0,.26,0,.52-.03.77v89.39c.05.41.08.83.08,1.25Z"/><path d="m39.2,174.97c0-.4.02-.79.07-1.18v2.36c-.05-.39-.07-.78-.07-1.18Z"/><path d="m61.31,174.97c0,.22-.01.44-.02.66v-1.32c.01.22.02.44.02.66Z"/><path d="m.03,151.44v1.54c-.02-.25-.03-.51-.03-.77s.01-.52.03-.77Z"/><path d="m140.32,171.61c0,5.95-4.95,10.77-11.05,10.77s-11.06-4.82-11.06-10.77h-.02v-84.13L45.06,45.25c-3.66-1.82-6.16-5.52-6.16-9.79,0-6.06,5.05-10.98,11.28-10.98,2.54,0,4.9.82,6.78,2.21l76.41,44.11,2.74,1.58c.07.06.14.12.22.18,2.25,1.86,3.72,4.59,3.88,7.66,0,.17,0,.35,0,.53v89.45c.07.46.1.93.1,1.41Z"/><path d="m136.11,72.38l-2.74-1.58c.99.4,1.91.93,2.74,1.58Z"/><path d="m179.43,146.96c0,5.95-4.95,10.77-11.06,10.77s-11.05-4.82-11.05-10.77c0-.22.01-.45.02-.67V62.5L85.12,20.81s-.09-.05-.13-.07l-1.23-.72s-.01,0-.02-.01c-.08-.06-.17-.11-.25-.17-2.79-2-4.6-5.22-4.6-8.85,0-6.07,5.05-10.99,11.28-10.99,1.52,0,2.97.29,4.3.83.13.05.26.11.39.16.01,0,.02,0,.03.02l1.94,1.12s.06.03.08.05l75.9,43.82,2.2,1.27.05.03h0c2.63,1.98,4.32,5.07,4.32,8.55,0,.22-.01.44-.02.66v89.27c.05.39.07.78.07,1.18Z"/><path d="m175.01,47.27l-2.2-1.27c.78.34,1.52.77,2.2,1.27Z"/><path d="m96.55,96.88l-2.63-1.52c.95.39,1.83.9,2.63,1.52Z"/><path d="m.04,153.09h-.01v-.11s0,.08.01.11Z"/><path d="m39.27,176.15s0,.05,0,.07h0v-.07Z"/><path d="m61.29,175.63v.59h-.06c.03-.19.05-.39.06-.59Z"/><path d="m78.71,197.73h-.05v-1.01c0,.34.02.68.05,1.01Z"/><path d="m96.95,97.11l-.04.06c-.12-.1-.24-.2-.36-.29l.4.23Z"/><path d="m140.22,80.22v.53c0-.18,0-.36,0-.53h0Z"/><path d="m136.35,72.52l-.02.04c-.08-.06-.15-.12-.22-.18l.24.14Z"/><path d="m83.49,19.84c.08.06.17.11.25.17l-.26-.15v-.02Z"/><path d="m94.86.99c-.13-.05-.26-.11-.39-.16l.03-.05.36.21Z"/><path d="m96.83,2.13l-1.94-1.12c.69.31,1.34.68,1.94,1.12Z"/></g></svg>